<mxfile host="Electron" agent="Mozilla/5.0 (Windows NT 10.0; Win64; x64) AppleWebKit/537.36 (KHTML, like Gecko) draw.io/24.7.17 Chrome/128.0.6613.36 Electron/32.0.1 Safari/537.36" version="24.7.17">
  <diagram name="Page-1" id="MmjDTnCz85tHLsgtwPcP">
    <mxGraphModel dx="2330" dy="934" grid="1" gridSize="10" guides="1" tooltips="1" connect="1" arrows="1" fold="1" page="1" pageScale="1" pageWidth="850" pageHeight="1100" math="0" shadow="0">
      <root>
        <mxCell id="0" />
        <mxCell id="1" parent="0" />
        <mxCell id="dSKped251qs8JmA_k3jA-21" value="" style="rounded=0;whiteSpace=wrap;html=1;" vertex="1" parent="1">
          <mxGeometry x="-90" y="170" width="1170" height="760" as="geometry" />
        </mxCell>
        <mxCell id="kENlwkhD7IL1omQlANnq-1" value="AWS Account" style="points=[[0,0],[0.25,0],[0.5,0],[0.75,0],[1,0],[1,0.25],[1,0.5],[1,0.75],[1,1],[0.75,1],[0.5,1],[0.25,1],[0,1],[0,0.75],[0,0.5],[0,0.25]];outlineConnect=0;gradientColor=none;html=1;whiteSpace=wrap;fontSize=12;fontStyle=0;container=1;pointerEvents=0;collapsible=0;recursiveResize=0;shape=mxgraph.aws4.group;grIcon=mxgraph.aws4.group_account;strokeColor=#CD2264;fillColor=none;verticalAlign=top;align=left;spacingLeft=30;fontColor=#CD2264;dashed=0;" parent="1" vertex="1">
          <mxGeometry x="-10" y="200" width="1040" height="530" as="geometry" />
        </mxCell>
        <mxCell id="dSKped251qs8JmA_k3jA-1" value="VPC" style="points=[[0,0],[0.25,0],[0.5,0],[0.75,0],[1,0],[1,0.25],[1,0.5],[1,0.75],[1,1],[0.75,1],[0.5,1],[0.25,1],[0,1],[0,0.75],[0,0.5],[0,0.25]];outlineConnect=0;gradientColor=none;html=1;whiteSpace=wrap;fontSize=12;fontStyle=0;container=1;pointerEvents=0;collapsible=0;recursiveResize=0;shape=mxgraph.aws4.group;grIcon=mxgraph.aws4.group_vpc2;strokeColor=#8C4FFF;fillColor=none;verticalAlign=top;align=left;spacingLeft=30;fontColor=#AAB7B8;dashed=0;" vertex="1" parent="kENlwkhD7IL1omQlANnq-1">
          <mxGeometry x="50" y="40" width="940" height="472" as="geometry" />
        </mxCell>
        <mxCell id="dSKped251qs8JmA_k3jA-2" value="Private" style="sketch=0;outlineConnect=0;gradientColor=none;html=1;whiteSpace=wrap;fontSize=12;fontStyle=0;shape=mxgraph.aws4.group;grIcon=mxgraph.aws4.group_subnet;strokeColor=#879196;fillColor=none;verticalAlign=top;align=left;spacingLeft=30;fontColor=#879196;dashed=0;" vertex="1" parent="dSKped251qs8JmA_k3jA-1">
          <mxGeometry x="40" y="40" width="360" height="400" as="geometry" />
        </mxCell>
        <mxCell id="dSKped251qs8JmA_k3jA-3" value="Public" style="sketch=0;outlineConnect=0;gradientColor=none;html=1;whiteSpace=wrap;fontSize=12;fontStyle=0;shape=mxgraph.aws4.group;grIcon=mxgraph.aws4.group_subnet;strokeColor=#879196;fillColor=none;verticalAlign=top;align=left;spacingLeft=30;fontColor=#879196;dashed=0;" vertex="1" parent="dSKped251qs8JmA_k3jA-1">
          <mxGeometry x="520" y="40" width="360" height="400" as="geometry" />
        </mxCell>
        <mxCell id="dSKped251qs8JmA_k3jA-14" style="edgeStyle=orthogonalEdgeStyle;rounded=0;orthogonalLoop=1;jettySize=auto;html=1;" edge="1" parent="dSKped251qs8JmA_k3jA-1" source="dSKped251qs8JmA_k3jA-5" target="dSKped251qs8JmA_k3jA-13">
          <mxGeometry relative="1" as="geometry" />
        </mxCell>
        <mxCell id="dSKped251qs8JmA_k3jA-5" value="App server 1" style="sketch=0;points=[[0,0,0],[0.25,0,0],[0.5,0,0],[0.75,0,0],[1,0,0],[0,1,0],[0.25,1,0],[0.5,1,0],[0.75,1,0],[1,1,0],[0,0.25,0],[0,0.5,0],[0,0.75,0],[1,0.25,0],[1,0.5,0],[1,0.75,0]];outlineConnect=0;fontColor=#232F3E;fillColor=#ED7100;strokeColor=#ffffff;dashed=0;verticalLabelPosition=bottom;verticalAlign=top;align=center;html=1;fontSize=12;fontStyle=0;aspect=fixed;shape=mxgraph.aws4.resourceIcon;resIcon=mxgraph.aws4.ec2;" vertex="1" parent="dSKped251qs8JmA_k3jA-1">
          <mxGeometry x="70" y="111" width="78" height="78" as="geometry" />
        </mxCell>
        <mxCell id="dSKped251qs8JmA_k3jA-9" style="rounded=0;orthogonalLoop=1;jettySize=auto;html=1;" edge="1" parent="dSKped251qs8JmA_k3jA-1" source="dSKped251qs8JmA_k3jA-6" target="dSKped251qs8JmA_k3jA-7">
          <mxGeometry relative="1" as="geometry" />
        </mxCell>
        <mxCell id="dSKped251qs8JmA_k3jA-6" value="App server 2" style="sketch=0;points=[[0,0,0],[0.25,0,0],[0.5,0,0],[0.75,0,0],[1,0,0],[0,1,0],[0.25,1,0],[0.5,1,0],[0.75,1,0],[1,1,0],[0,0.25,0],[0,0.5,0],[0,0.75,0],[1,0.25,0],[1,0.5,0],[1,0.75,0]];outlineConnect=0;fontColor=#232F3E;fillColor=#ED7100;strokeColor=#ffffff;dashed=0;verticalLabelPosition=bottom;verticalAlign=top;align=center;html=1;fontSize=12;fontStyle=0;aspect=fixed;shape=mxgraph.aws4.resourceIcon;resIcon=mxgraph.aws4.ec2;" vertex="1" parent="dSKped251qs8JmA_k3jA-1">
          <mxGeometry x="260" y="111" width="78" height="78" as="geometry" />
        </mxCell>
        <mxCell id="dSKped251qs8JmA_k3jA-7" value="Active Directory server" style="sketch=0;points=[[0,0,0],[0.25,0,0],[0.5,0,0],[0.75,0,0],[1,0,0],[0,1,0],[0.25,1,0],[0.5,1,0],[0.75,1,0],[1,1,0],[0,0.25,0],[0,0.5,0],[0,0.75,0],[1,0.25,0],[1,0.5,0],[1,0.75,0]];outlineConnect=0;fontColor=#232F3E;fillColor=#ED7100;strokeColor=#ffffff;dashed=0;verticalLabelPosition=bottom;verticalAlign=top;align=center;html=1;fontSize=12;fontStyle=0;aspect=fixed;shape=mxgraph.aws4.resourceIcon;resIcon=mxgraph.aws4.ec2;" vertex="1" parent="dSKped251qs8JmA_k3jA-1">
          <mxGeometry x="260" y="291" width="78" height="78" as="geometry" />
        </mxCell>
        <mxCell id="dSKped251qs8JmA_k3jA-8" style="rounded=0;orthogonalLoop=1;jettySize=auto;html=1;entryX=0.5;entryY=0;entryDx=0;entryDy=0;entryPerimeter=0;" edge="1" parent="dSKped251qs8JmA_k3jA-1" source="dSKped251qs8JmA_k3jA-5" target="dSKped251qs8JmA_k3jA-7">
          <mxGeometry relative="1" as="geometry" />
        </mxCell>
        <mxCell id="dSKped251qs8JmA_k3jA-10" value="Load Balancer" style="sketch=0;points=[[0,0,0],[0.25,0,0],[0.5,0,0],[0.75,0,0],[1,0,0],[0,1,0],[0.25,1,0],[0.5,1,0],[0.75,1,0],[1,1,0],[0,0.25,0],[0,0.5,0],[0,0.75,0],[1,0.25,0],[1,0.5,0],[1,0.75,0]];outlineConnect=0;fontColor=#232F3E;fillColor=#ED7100;strokeColor=#ffffff;dashed=0;verticalLabelPosition=bottom;verticalAlign=top;align=center;html=1;fontSize=12;fontStyle=0;aspect=fixed;shape=mxgraph.aws4.resourceIcon;resIcon=mxgraph.aws4.ec2;" vertex="1" parent="dSKped251qs8JmA_k3jA-1">
          <mxGeometry x="661" y="222" width="78" height="78" as="geometry" />
        </mxCell>
        <mxCell id="dSKped251qs8JmA_k3jA-11" style="edgeStyle=orthogonalEdgeStyle;rounded=0;orthogonalLoop=1;jettySize=auto;html=1;entryX=0.5;entryY=0;entryDx=0;entryDy=0;entryPerimeter=0;" edge="1" parent="dSKped251qs8JmA_k3jA-1" source="dSKped251qs8JmA_k3jA-10" target="dSKped251qs8JmA_k3jA-6">
          <mxGeometry relative="1" as="geometry">
            <Array as="points">
              <mxPoint x="700" y="80" />
              <mxPoint x="299" y="80" />
            </Array>
          </mxGeometry>
        </mxCell>
        <mxCell id="dSKped251qs8JmA_k3jA-12" style="edgeStyle=orthogonalEdgeStyle;rounded=0;orthogonalLoop=1;jettySize=auto;html=1;entryX=0.5;entryY=0;entryDx=0;entryDy=0;entryPerimeter=0;" edge="1" parent="dSKped251qs8JmA_k3jA-1" source="dSKped251qs8JmA_k3jA-10" target="dSKped251qs8JmA_k3jA-5">
          <mxGeometry relative="1" as="geometry">
            <Array as="points">
              <mxPoint x="700" y="80" />
              <mxPoint x="109" y="80" />
            </Array>
          </mxGeometry>
        </mxCell>
        <mxCell id="dSKped251qs8JmA_k3jA-13" value="Database server" style="sketch=0;points=[[0,0,0],[0.25,0,0],[0.5,0,0],[0.75,0,0],[1,0,0],[0,1,0],[0.25,1,0],[0.5,1,0],[0.75,1,0],[1,1,0],[0,0.25,0],[0,0.5,0],[0,0.75,0],[1,0.25,0],[1,0.5,0],[1,0.75,0]];outlineConnect=0;fontColor=#232F3E;fillColor=#ED7100;strokeColor=#ffffff;dashed=0;verticalLabelPosition=bottom;verticalAlign=top;align=center;html=1;fontSize=12;fontStyle=0;aspect=fixed;shape=mxgraph.aws4.resourceIcon;resIcon=mxgraph.aws4.ec2;" vertex="1" parent="dSKped251qs8JmA_k3jA-1">
          <mxGeometry x="70" y="291" width="78" height="78" as="geometry" />
        </mxCell>
        <mxCell id="dSKped251qs8JmA_k3jA-16" style="rounded=0;orthogonalLoop=1;jettySize=auto;html=1;entryX=0.5;entryY=0;entryDx=0;entryDy=0;entryPerimeter=0;" edge="1" parent="dSKped251qs8JmA_k3jA-1" source="dSKped251qs8JmA_k3jA-6" target="dSKped251qs8JmA_k3jA-13">
          <mxGeometry relative="1" as="geometry" />
        </mxCell>
        <mxCell id="dSKped251qs8JmA_k3jA-17" value="" style="outlineConnect=0;dashed=0;verticalLabelPosition=bottom;verticalAlign=top;align=center;html=1;shape=mxgraph.aws3.internet_gateway;fillColor=#F58534;gradientColor=none;" vertex="1" parent="dSKped251qs8JmA_k3jA-1">
          <mxGeometry x="665.5" y="400" width="69" height="72" as="geometry" />
        </mxCell>
        <mxCell id="dSKped251qs8JmA_k3jA-20" style="edgeStyle=orthogonalEdgeStyle;rounded=0;orthogonalLoop=1;jettySize=auto;html=1;entryX=0.5;entryY=1;entryDx=0;entryDy=0;entryPerimeter=0;" edge="1" parent="dSKped251qs8JmA_k3jA-1" source="dSKped251qs8JmA_k3jA-17" target="dSKped251qs8JmA_k3jA-10">
          <mxGeometry relative="1" as="geometry" />
        </mxCell>
        <mxCell id="dSKped251qs8JmA_k3jA-19" style="edgeStyle=orthogonalEdgeStyle;rounded=0;orthogonalLoop=1;jettySize=auto;html=1;" edge="1" parent="1" source="dSKped251qs8JmA_k3jA-18" target="dSKped251qs8JmA_k3jA-17">
          <mxGeometry relative="1" as="geometry" />
        </mxCell>
        <mxCell id="dSKped251qs8JmA_k3jA-18" value="User" style="sketch=0;outlineConnect=0;fontColor=#232F3E;gradientColor=none;fillColor=#232F3D;strokeColor=none;dashed=0;verticalLabelPosition=bottom;verticalAlign=top;align=center;html=1;fontSize=12;fontStyle=0;aspect=fixed;pointerEvents=1;shape=mxgraph.aws4.user;" vertex="1" parent="1">
          <mxGeometry x="701" y="810" width="78" height="78" as="geometry" />
        </mxCell>
        <mxCell id="dSKped251qs8JmA_k3jA-22" value="1. We need authentication using AD&lt;div&gt;2. We need APIs&lt;/div&gt;&lt;div&gt;3. We need to take care of security&lt;/div&gt;" style="text;html=1;align=center;verticalAlign=middle;whiteSpace=wrap;rounded=0;perimeterSpacing=3;strokeWidth=2;strokeColor=default;" vertex="1" parent="1">
          <mxGeometry x="-60" y="790" width="270" height="69" as="geometry" />
        </mxCell>
      </root>
    </mxGraphModel>
  </diagram>
</mxfile>
